<svg xmlns="http://www.w3.org/2000/svg" width="514" height="514" viewBox="0 0 514 514"><path d="M237.146 2.057C162.744 8.688 96.852 44.855 52.973 103.144c-26.19 34.791-42.412 73.813-49.055 118-3.061 20.361-3.066 51.51-.012 71.712C16.788 378.07 67.07 447.541 143.509 485.734c36.692 18.334 71.361 26.398 113.491 26.398 42.13 0 76.799-8.064 113.491-26.398 62.06-31.009 107.274-82.902 128.918-147.965 9.213-27.694 12.907-51.196 12.852-81.769-.042-23.602-2.155-40.697-7.708-62.362-23.833-92.992-98.31-165.303-191.562-185.993-23.68-5.254-54.293-7.509-75.845-5.588M196.5 208.419c2.2.764 4.132 2.038 4.294 2.833.162.794-2.876 4.934-6.75 9.199-6.984 7.689-8.494 11.055-5.48 12.212 1.742.668 4.654-.599 8.483-3.692l2.546-2.058 4.797 2.681c4.512 2.522 4.755 2.866 4.1 5.794-.383 1.711-.987 7.811-1.343 13.554l-.647 10.443-6.762.152c-7.328.166-8.628.686-6.904 2.763.713.859 1.219 8.044 1.393 19.774l.273 18.426 3.875.318c3.135.257 4.436-.22 6.819-2.5l2.944-2.818 2.902 3.5c1.597 1.925 2.767 3.95 2.601 4.5-.166.55-5.124 1.324-11.017 1.72-7.138.48-11.664 1.282-13.558 2.4-1.564.924-3.568 1.401-4.455 1.061-1.705-.654-1.786-2.119-1.809-32.681-.005-6.875-.429-13.287-.941-14.25-.612-1.151-2.118-1.75-4.396-1.75-3.34 0-4.54 1.217-2.465 2.5 1.872 1.157 1.007 3.786-2.75 8.358-2.062 2.51-4.2 5.294-4.75 6.187-.55.893-2.705 4.061-4.788 7.039-7.43 10.624-8.721 12.484-12.429 17.916-5.644 8.269-5.283 3.956.661-7.889 2.781-5.541 5.056-10.554 5.056-11.139 0-.585 1.629-4.531 3.619-8.768 5.705-12.143 4.596-17.621-2.38-11.752-5.989 5.04-6.239 4.464-6.239-14.393 0-17.197.504-19.545 3.639-16.943 1.031.855 5.531 1.371 13.388 1.535l11.836.247 2.142-3.631c2.149-3.642 4.188-9.164 5.453-14.767.745-3.298 3.172-7.509 4.315-7.485.4.008 2.527.64 4.727 1.404m38.774-12.651c3.629 3.717 3.658 3.809 2.085 6.75-1.794 3.354-2.077 12.838-2.315 77.482l-.138 37.5-5.846 6.36-5.845 6.36-8.166-8.111c-4.491-4.461-7.874-8.582-7.518-9.159.398-.644 1.094-.697 1.808-.137.639.501 3.374 1.2 6.078 1.553 9.189 1.199 8.593 5.139 8.513-56.271-.039-29.477-.399-54.43-.801-55.451-.401-1.021-2.187-2.47-3.969-3.219-1.781-.749-2.964-.918-2.629-.375.396.642-7.471.893-22.462.719-14.535-.17-23.071-.639-23.071-1.269 0-.635 9.674-1.097 26.489-1.266l26.488-.267 1.628-2.483c2.299-3.51 5.391-3.099 9.671 1.284m55.836 32.4c2.69 1.743 4.89 3.334 4.89 3.536 0 .201-.682 1.407-1.516 2.679-1.282 1.957-1.474 6.763-1.25 31.215.306 33.294-.053 32.312 9.516 25.987 2.888-1.908 5.25-3.127 5.25-2.707 0 .42-2.587 3.438-5.75 6.706-3.162 3.268-9.043 9.648-13.068 14.179-4.849 5.458-8.038 8.237-9.452 8.237-2.537 0-8.73-5.695-8.73-8.029 0-.9 1.8-3.083 4-4.851l4-3.214v-32.331c0-26.935-.241-32.53-1.441-33.526-.793-.658-4.506-1.228-8.25-1.266-6.659-.067-9.837-1.12-8.739-2.896.301-.488 4.391-.887 9.088-.887 8.199 0 8.651-.12 11.342-3 1.541-1.65 3.347-3 4.012-3 .665 0 3.409 1.426 6.098 3.168m-161.36-20.195 4.25 1.929V317.12l-5.145 5.44c-2.83 2.992-5.53 5.44-6 5.44-.995 0-1.182-120.339-.188-121.333 1.042-1.042 2.503-.773 7.083 1.306M343.5 236c.995 1.1 2.849 2 4.12 2 3.822 0 4.537 3.024 4.446 18.825-.046 8.071-.192 15.8-.325 17.175l-.241 2.5 12.639.279 12.64.279 4.014-4.56 4.014-4.56 4.347 2.94c5.433 3.676 9.426 7.877 8.428 8.868-.417.415-4.881.754-9.92.754-28.352 0-35.615.451-37.412 2.322-.962 1.002-5.575 6.211-10.25 11.574a8263.278 8263.278 0 0 1-13.5 15.453c-2.75 3.135-6.49 7.424-8.312 9.531-1.821 2.106-3.531 3.611-3.799 3.343-.559-.559 2.581-6.372 6.601-12.223 1.511-2.2 3.676-5.575 4.811-7.5 1.134-1.925 4.118-6.967 6.631-11.203 2.512-4.237 4.568-8.389 4.568-9.226 0-1.292-2.538-1.564-16.75-1.797-14.1-.231-16.75-.511-16.75-1.774 0-1.261 2.615-1.544 16.428-1.776 10.042-.168 16.943-.702 17.75-1.372 1.014-.841 1.322-5.69 1.322-20.808 0-22.091.361-23.618 4.5-19.044m1.472-50.014c2.141 1.092 4.26 2.554 4.71 3.25.45.695.818 4.414.818 8.264v7l8.175.289c7.93.281 8.269.198 11.285-2.75 1.71-1.671 3.41-3.039 3.777-3.039 1.24 0 7.263 6.382 7.263 7.696 0 1.012-3.241 1.304-14.465 1.304-16.858 0-16.331-.341-16.055 10.388.239 9.299.782 9.637 14.376 8.951 8.226-.415 11.259-.968 13.354-2.438 1.49-1.045 3.243-1.901 3.897-1.901.966 0 6.677 4.11 11.319 8.147 1.006.875-2.053 4.853-3.731 4.853-.547 0-4.149 1.818-8.004 4.041-7.948 4.583-10.058 4.229-7.797-1.305.728-1.78 1.386-4.136 1.464-5.236.139-1.956-.631-2.011-34.858-2.5-29.13-.416-35-.735-35-1.903 0-1.135 2.794-1.421 14.667-1.5 8.067-.053 15.042-.472 15.5-.929.458-.458 1.061-4.232 1.341-8.386.674-10.03.052-10.463-14.67-10.21-8.634.148-10.838-.095-10.838-1.193 0-1.085 2.716-1.439 12.75-1.659 7.013-.154 12.766-.604 12.786-1 .02-.396.159-3.87.31-7.72.25-6.424 1.791-12.5 3.169-12.5.311 0 2.316.894 4.457 1.986m12.762 109.759c1.464.96 8.536 4.672 15.714 8.25 8.317 4.145 13.169 7.139 13.375 8.253.457 2.475-5.785 11.752-7.907 11.752-.962 0-3.222-1.912-5.024-4.25-1.802-2.337-5.552-6.827-8.334-9.976-10.308-11.669-12.518-14.481-11.879-15.12.911-.911 1.06-.871 4.055 1.091M276 192.036c1.375.941 5.313 3.124 8.75 4.852 3.438 1.727 6.25 3.491 6.25 3.918 0 .428-1.992 2.732-4.426 5.121-6.315 6.199-8.238 4.877-13.525-9.296-2.976-7.976-2.675-8.444 2.951-4.595m-128.223-1.252 8.277 4.265-3.608 4.726c-1.985 2.599-4.104 4.725-4.71 4.725-.606 0-2.087-1.8-3.292-4-6.423-11.731-7.218-13.392-6.668-13.943.329-.329.852-.473 1.162-.319.309.154 4.287 2.2 8.839 4.546m172.193 66.733c3.559 1.267 6.622 2.76 6.808 3.318.643 1.928-3.775 9.165-5.594 9.165-1.076 0-3.798-2.911-6.916-7.396-4.955-7.127-5.605-9.378-2.32-8.029.853.351 4.464 1.675 8.022 2.942m7.833-16.634c2.366.676 4.529 1.818 4.805 2.538.624 1.626-2.879 8.079-4.385 8.079-1.763 0-9.408-11.576-8.76-13.263.509-1.327.787-1.333 2.308-.046.951.805 3.665 2.017 6.032 2.692m-160.466-23.828c3.115 2.23 5.663 4.298 5.663 4.596 0 1.345-4.269 6.349-5.416 6.349-.704 0-2.112-1.912-3.128-4.25-1.016-2.337-2.646-5.426-3.622-6.863-1.62-2.385-1.554-3.887.17-3.887.369 0 3.219 1.825 6.333 4.055" fill="#E7EEFF" stroke="#E7EEFF"/><path d="M189.591 209.25c-.801 1.238-1.76 3.6-2.133 5.25-1.265 5.603-3.304 11.125-5.453 14.767l-2.142 3.631-11.836-.247c-7.857-.164-12.357-.68-13.388-1.535-3.135-2.602-3.639-.254-3.639 16.943 0 18.857.25 19.433 6.239 14.393 6.976-5.869 8.085-.391 2.38 11.752-1.99 4.237-3.619 8.183-3.619 8.768 0 .585-2.275 5.598-5.056 11.139-5.944 11.845-6.305 16.158-.661 7.889 3.708-5.432 4.999-7.292 12.429-17.916 2.083-2.978 4.238-6.146 4.788-7.039.55-.893 2.688-3.677 4.75-6.187 3.757-4.572 4.622-7.201 2.75-8.358-2.075-1.283-.875-2.5 2.465-2.5 2.278 0 3.784.599 4.396 1.75.512.963.936 7.375.941 14.25.023 30.562.104 32.027 1.809 32.681.887.34 2.891-.137 4.455-1.061 1.894-1.118 6.42-1.92 13.558-2.4 5.893-.396 10.851-1.17 11.017-1.72.166-.55-1.004-2.575-2.601-4.5l-2.902-3.5-2.944 2.818c-2.383 2.28-3.684 2.757-6.819 2.5l-3.875-.318-.273-18.426c-.174-11.73-.68-18.915-1.393-19.774-1.724-2.077-.424-2.597 6.904-2.763l6.762-.152.647-10.443c.356-5.743.96-11.843 1.343-13.554.655-2.928.412-3.272-4.1-5.794l-4.797-2.681-2.546 2.058c-3.829 3.093-6.741 4.36-8.483 3.692-3.014-1.157-1.504-4.523 5.48-12.212 3.874-4.265 6.912-8.405 6.75-9.199-.246-1.21-6.584-4.186-9.021-4.237-.4-.008-1.382.998-2.182 2.235m2.209 27.95c1.869 1.869 1.589 16.232-.348 17.84-2.058 1.708-26.95 1.622-29.025-.101-1.024-.849-1.427-3.504-1.427-9.395 0-4.516.3-8.511.667-8.877 1.245-1.246 28.842-.758 30.133.533" fill="#4360B7" stroke="#4360B7"/><path d="m225.603 194.484-1.628 2.483-26.488.267c-16.815.169-26.489.631-26.489 1.266 0 .63 8.536 1.099 23.071 1.269 14.991.174 22.858-.077 22.462-.719-.335-.543.848-.374 2.629.375 1.782.749 3.568 2.198 3.969 3.219.402 1.021.762 25.974.801 55.451.08 61.41.676 57.47-8.513 56.271-2.704-.353-5.439-1.052-6.078-1.553-.714-.56-1.41-.507-1.808.137-.356.577 3.027 4.698 7.518 9.159l8.166 8.111 5.845-6.36 5.846-6.36.138-37.5c.238-64.644.521-74.128 2.315-77.482 1.573-2.941 1.544-3.033-2.085-6.75-4.28-4.383-7.372-4.794-9.671-1.284M281 228c-2.691 2.88-3.143 3-11.342 3-4.697 0-8.787.399-9.088.887-1.098 1.776 2.08 2.829 8.739 2.896 3.744.038 7.457.608 8.25 1.266 1.2.996 1.441 6.591 1.441 33.526v32.331l-4 3.214c-2.2 1.768-4 3.951-4 4.851 0 2.334 6.193 8.029 8.73 8.029 1.414 0 4.603-2.779 9.452-8.237 4.025-4.531 9.906-10.911 13.068-14.179 3.163-3.268 5.75-6.286 5.75-6.706 0-.42-2.362.799-5.25 2.707-9.569 6.325-9.21 7.307-9.516-25.987-.224-24.452-.032-29.258 1.25-31.215.834-1.272 1.516-2.478 1.516-2.679 0-.723-9.804-6.704-10.988-6.704-.665 0-2.471 1.35-4.012 3M122.667 206.667c-.994.994-.807 121.333.188 121.333.47 0 3.17-2.448 6-5.44l5.145-5.44V209.902l-4.25-1.929c-4.58-2.079-6.041-2.348-7.083-1.306" fill="#4360B7" stroke="#4360B7"/><path d="M339.667 234.667c-.367.366-.667 9.536-.667 20.377 0 15.118-.308 19.967-1.322 20.808-.807.67-7.708 1.204-17.75 1.372-13.813.232-16.428.515-16.428 1.776 0 1.263 2.65 1.543 16.75 1.774 14.212.233 16.75.505 16.75 1.797 0 .837-2.056 4.989-4.568 9.226A5756.085 5756.085 0 0 0 325.801 303c-1.135 1.925-3.3 5.3-4.811 7.5-4.02 5.851-7.16 11.664-6.601 12.223.268.268 1.978-1.237 3.799-3.343 1.822-2.107 5.562-6.396 8.312-9.531 2.75-3.135 8.825-10.089 13.5-15.453 4.675-5.363 9.288-10.572 10.25-11.574 1.797-1.871 9.06-2.322 37.412-2.322 5.039 0 9.503-.339 9.92-.754.998-.991-2.995-5.192-8.428-8.868l-4.347-2.94-4.014 4.56-4.014 4.56-12.64-.279-12.639-.279.241-2.5c.133-1.375.279-9.104.325-17.175.091-15.801-.624-18.825-4.446-18.825-1.271 0-3.125-.9-4.12-2-1.92-2.121-2.755-2.412-3.833-1.333" fill="#4360B7" stroke="#4360B7"/><path d="M338.785 186.75c-.641 1.513-1.289 5.9-1.439 9.75-.151 3.85-.29 7.324-.31 7.72-.02.396-5.773.846-12.786 1-10.034.22-12.75.574-12.75 1.659 0 1.098 2.204 1.341 10.838 1.193 14.722-.253 15.344.18 14.67 10.21-.28 4.154-.883 7.928-1.341 8.386-.458.457-7.433.876-15.5.929-11.873.079-14.667.365-14.667 1.5 0 1.168 5.87 1.487 35 1.903 34.227.489 34.997.544 34.858 2.5-.078 1.1-.736 3.456-1.464 5.236-2.261 5.534-.151 5.888 7.797 1.305 3.855-2.223 7.457-4.041 8.004-4.041 1.678 0 4.737-3.978 3.731-4.853-4.642-4.037-10.353-8.147-11.319-8.147-.654 0-2.407.856-3.897 1.901-2.095 1.47-5.128 2.023-13.354 2.438-13.594.686-14.137.348-14.376-8.951-.276-10.729-.803-10.388 16.055-10.388 11.224 0 14.465-.292 14.465-1.304 0-1.314-6.023-7.696-7.263-7.696-.367 0-2.067 1.368-3.777 3.039-3.016 2.948-3.355 3.031-11.285 2.75l-8.175-.289v-7c0-3.85-.368-7.569-.818-8.264-.755-1.168-7.878-5.236-9.167-5.236-.31 0-1.089 1.238-1.73 2.75" fill="#4360B7" stroke="#4360B7"/><path d="M161.667 236.667c-.367.366-.667 4.361-.667 8.877 0 5.891.403 8.546 1.427 9.395 2.075 1.723 26.967 1.809 29.025.101 1.937-1.608 2.217-15.971.348-17.84-1.291-1.291-28.888-1.779-30.133-.533" fill="#E7EEFF" stroke="#E7EEFF"/><path d="M353.679 294.654c-.639.639 1.571 3.451 11.879 15.12 2.782 3.149 6.532 7.639 8.334 9.976 1.802 2.338 4.062 4.25 5.024 4.25 2.122 0 8.364-9.277 7.907-11.752-.206-1.114-5.058-4.108-13.375-8.253-7.178-3.578-14.25-7.29-15.714-8.25-2.995-1.962-3.144-2.002-4.055-1.091M273.049 196.631c5.287 14.173 7.21 15.495 13.525 9.296 2.434-2.389 4.426-4.693 4.426-5.121 0-.427-2.812-2.191-6.25-3.918-3.437-1.728-7.375-3.911-8.75-4.852-5.626-3.849-5.927-3.381-2.951 4.595M137.776 186.557c-.55.551.245 2.212 6.668 13.943 1.205 2.2 2.686 4 3.292 4 .606 0 2.725-2.126 4.71-4.725l3.608-4.726-8.277-4.265c-4.552-2.346-8.53-4.392-8.839-4.546-.31-.154-.833-.01-1.162.319M309.761 254.573c-1.102 1.101 9.507 15.427 11.423 15.427 1.819 0 6.237-7.237 5.594-9.165-.186-.558-3.249-2.051-6.808-3.318-3.558-1.267-7.169-2.591-8.022-2.942-.854-.35-1.838-.352-2.187-.002M319.463 238.237c-.648 1.687 6.997 13.263 8.76 13.263 1.506 0 5.009-6.453 4.385-8.079-.276-.72-2.439-1.862-4.805-2.538-2.367-.675-5.081-1.887-6.032-2.692-1.521-1.287-1.799-1.281-2.308.046M159.696 213.637c-.35.351.162 1.813 1.138 3.25.976 1.437 2.606 4.526 3.622 6.863 1.016 2.338 2.424 4.25 3.128 4.25 1.147 0 5.416-5.004 5.416-6.349 0-.669-11.07-8.651-11.996-8.651-.369 0-.957.287-1.308.637"  fill="#4360B7" stroke="#4360B7"/></svg>